<svg xmlns="http://www.w3.org/2000/svg" xmlns:xlink="http://www.w3.org/1999/xlink" width="50" zoomAndPan="magnify" viewBox="0 0 37.5 37.499999" height="50" preserveAspectRatio="xMidYMid meet" version="1.0"><defs><clipPath id="f067d8fe2c"><path d="M 7 8 L 30 8 L 30 28 L 7 28 Z M 7 8 " clip-rule="nonzero"/></clipPath><clipPath id="e9be682bba"><path d="M 33.304688 11.804688 L 23.738281 33.472656 L 3.425781 24.507812 L 12.988281 2.839844 Z M 33.304688 11.804688 " clip-rule="nonzero"/></clipPath><clipPath id="828580182d"><path d="M 13.191406 2.925781 L 3.628906 24.59375 L 23.941406 33.558594 L 33.503906 11.890625 Z M 13.191406 2.925781 " clip-rule="nonzero"/></clipPath><clipPath id="f3d6f34071"><path d="M 13.191406 2.925781 L 3.628906 24.59375 L 23.941406 33.558594 L 33.503906 11.890625 Z M 13.191406 2.925781 " clip-rule="nonzero"/></clipPath></defs><g clip-path="url(#f067d8fe2c)"><g clip-path="url(#e9be682bba)"><g clip-path="url(#828580182d)"><g clip-path="url(#f3d6f34071)"><path fill="#000000" d="M 18.035156 27.109375 L 13.152344 21.851562 L 10.859375 27.042969 Z M 26.179688 27.179688 L 26.285156 26.941406 L 21.425781 21.710938 L 19.042969 27.117188 Z M 28.660156 21.566406 L 21.953125 21.507812 L 26.515625 26.421875 Z M 24.101562 15.539062 C 24.058594 15.566406 24.011719 15.582031 23.960938 15.582031 L 16.386719 15.511719 L 21.464844 20.980469 L 28.886719 21.046875 L 28.992188 20.808594 Z M 26.269531 9.441406 L 19.09375 9.378906 L 23.976562 14.632812 Z M 10.949219 9.304688 L 10.84375 9.542969 L 15.703125 14.777344 L 18.085938 9.367188 Z M 8.472656 14.917969 L 15.175781 14.976562 L 10.613281 10.066406 Z M 13.027344 20.945312 C 13.070312 20.917969 13.117188 20.90625 13.167969 20.90625 L 20.742188 20.972656 L 15.664062 15.507812 L 8.242188 15.441406 L 8.136719 15.679688 Z M 18.5625 26.90625 L 20.945312 21.5 L 13.476562 21.433594 Z M 18.566406 9.582031 L 16.183594 14.988281 L 23.648438 15.054688 Z M 10.238281 27.445312 C 10.191406 27.371094 10.183594 27.277344 10.21875 27.195312 L 12.761719 21.433594 L 7.632812 15.910156 C 7.5625 15.832031 7.542969 15.71875 7.585938 15.625 L 10.539062 8.9375 C 10.578125 8.839844 10.675781 8.777344 10.78125 8.78125 L 26.671875 8.921875 C 26.757812 8.921875 26.839844 8.96875 26.890625 9.042969 C 26.9375 9.117188 26.945312 9.207031 26.910156 9.289062 L 24.367188 15.054688 L 29.496094 20.578125 C 29.566406 20.652344 29.585938 20.765625 29.542969 20.863281 L 26.589844 27.550781 C 26.550781 27.644531 26.453125 27.707031 26.347656 27.707031 L 10.457031 27.566406 C 10.371094 27.566406 10.289062 27.519531 10.238281 27.445312 " fill-opacity="1" fill-rule="nonzero"/></g></g></g></g></svg>